<?xml version="1.0" standalone="no"?><!DOCTYPE svg PUBLIC "-//W3C//DTD SVG 1.1//EN" "http://www.w3.org/Graphics/SVG/1.1/DTD/svg11.dtd"><svg t="1760929011205" class="icon" viewBox="0 0 1024 1024" version="1.1" xmlns="http://www.w3.org/2000/svg" p-id="1741" xmlns:xlink="http://www.w3.org/1999/xlink" width="200" height="200"><path d="M775.637333 417.792c-1.493333-30.421333-6.058667-61.312-19.797333-89.045333a146.944 146.944 0 0 0-30.293333-41.258667 194.005333 194.005333 0 0 0-39.04-29.013333c-31.36-18.133333-68.736-30.208-154.752-55.082667C445.781333 178.474667 394.666667 170.666667 394.666667 170.666667v637.013333L541.141333 853.333333s0.170667-353.408 0.170667-532.48v-6.741333c0-16.512 13.738667-29.866667 29.525333-29.866667h0.896c15.573333 0 28.416 13.354667 28.416 29.866667v236.970667c20.181333 9.386667 53.546667 16.512 76.672 16.213333 15.36 0.384 30.506667-3.114667 43.989334-10.154667 13.952-7.253333 25.514667-18.474667 33.749333-31.658666 9.386667-14.762667 15.018667-31.658667 18.176-48.512 3.456-19.2 3.669333-39.296 2.901333-59.221334v0.042667z m-574.122666 275.2c50.261333-17.450667 163.754667-52.48 163.754666-52.48v-83.882667s-140.245333 44.074667-204.074666 65.962667c-15.786667 5.546667-31.701333 10.496-47.104 16.896-18.005333 7.253333-35.584 15.488-51.541334 26.325333-6.954667 4.608-13.184 10.496-16.853333 17.92a29.909333 29.909333 0 0 0-0.896 24.192c3.669333 9.088 10.624 16.512 18.517333 22.4 14.250667 10.496 31.36 16.896 48.384 21.674667 52.053333 16.725333 107.093333 24.917333 162.090667 23.637333 26.581333-0.341333 66.005333-3.370667 91.690667-7.808v-74.666666s-20.181333 4.437333-75.733334 22.186666c-8.405333 2.688-16.853333 5.888-25.685333 7.68a197.546667 197.546667 0 0 1-39.594667 3.882667c-11.904-0.512-24.192-1.237333-35.413333-5.504-4.010667-1.792-8.362667-3.882667-10.069333-8.192-1.450667-3.541333 0.554667-7.125333 3.114666-9.6 5.12-5.12 12.458667-7.978667 19.413334-10.666667v0.042667zM981.333333 671.829333c-0.170667-10.666667-6.784-19.925333-14.506666-26.666666-13.013333-11.221333-29.141333-18.346667-45.269334-24.021334-10.112-3.413333-17.066667-5.845333-26.965333-8.917333-46.208-14.549333-95.146667-19.882667-143.573333-20.053333-14.677333 0.512-42.368 0.853333-56.874667 2.474666-40.149333 4.437333-123.392 27.349333-123.392 27.349334v86.741333s123.776-38.4 176.938667-56.533333a178.346667 178.346667 0 0 1 55.552-8.192c11.946667 0.341333 24.234667 1.28 35.584 5.546666 4.010667 1.578667 8.234667 3.84 10.069333 7.978667 1.664 4.608-1.621333 8.874667-5.290667 11.52-8.618667 6.784-19.626667 9.429333-29.696 13.141333-75.178667 25.770667-243.328 79.488-243.328 79.488v83.584s214.912-70.4 313.173334-104.533333c16.298667-5.888 32.853333-10.837333 48.426666-18.517333 14.506667-7.082667 28.970667-15.274667 39.978667-27.178667a34.432 34.432 0 0 0 9.130667-23.296l0.042666 0.085333z" fill="#0b82c0" p-id="1742"></path></svg>