<?xml version="1.0" standalone="no"?><!DOCTYPE svg PUBLIC "-//W3C//DTD SVG 1.1//EN" "http://www.w3.org/Graphics/SVG/1.1/DTD/svg11.dtd"><svg t="1760929196395" class="icon" viewBox="0 0 1024 1024" version="1.1" xmlns="http://www.w3.org/2000/svg" p-id="8653" xmlns:xlink="http://www.w3.org/1999/xlink" width="200" height="200"><path d="M218.541567 3.737674a263.475347 263.475347 0 0 0-209.350567 193.01101C0 232.491463 0 252.915909 0 530.688368c0 254.284347 1.021222 260.41168 5.106111 279.814903a265.517792 265.517792 0 0 0 206.2869 206.2869 917.057603 917.057603 0 0 0 146.034785 4.084889 571.884474 571.884474 0 0 0 132.758896-2.042445C495.292804 1015.768948 495.292804 974.920057 495.292804 511.285144c0-343.130685 0-504.483804-2.042445-507.54747C490.186692 0.674007 487.123025 0.674007 362.533908 0.674007 262.454125 0.674007 231.817457 1.695229 218.541567 3.737674zM409.510132 511.285144v428.913356L323.727461 938.156056A463.634913 463.634913 0 0 1 219.562789 933.049944a179.73512 179.73512 0 0 1-132.758896-137.865007 12114.759853 12114.759853 0 0 1 0-568.820807 181.777565 181.777565 0 0 1 109.270784-130.716452C224.668901 85.435456 236.923568 83.393011 327.81235 83.393011H408.48891V511.285144zM235.902346 212.067018A116.419339 116.419339 0 0 0 193.01101 235.55513a93.952449 93.952449 0 0 0-30.636668 78.634115c0 16.339556 1.021222 20.424446 8.169778 34.721558a91.910005 91.910005 0 0 0 44.93378 44.93378 65.358226 65.358226 0 0 0 36.764002 9.191A81.697782 81.697782 0 0 0 285.942237 398.950694 94.973672 94.973672 0 0 0 350.27924 291.722355 97.016116 97.016116 0 0 0 236.923568 212.067018zM598.436253 1.695229l-1.021222 510.611138c0 459.550024 0 506.526249 3.063667 508.568693A3982.766874 3982.766874 0 0 0 789.404819 1019.853838 263.475347 263.475347 0 0 0 1007.946386 843.182384C1021.222275 803.354715 1021.222275 814.58816 1021.222275 511.285144 1021.222275 267.213021 1021.222275 231.470241 1018.158609 216.151907A262.454125 262.454125 0 0 0 802.680708 3.737674 831.274932 831.274932 0 0 0 690.346258 0.674007l-91.910005 1.021222z m225.690123 460.571246a103.14345 103.14345 0 0 1 71.48556 66.379448 109.270783 109.270783 0 0 1 0 67.40067 104.164672 104.164672 0 0 1-71.48556 65.358226 104.164672 104.164672 0 0 1-124.589117-71.485559 122.546673 122.546673 0 0 1 0-58.20967 102.122228 102.122228 0 0 1 123.567895-69.443115z" fill="#D81E06" p-id="8654"></path></svg>